<mxfile host="Electron" modified="2024-07-22T07:50:01.882Z" agent="Mozilla/5.0 (Windows NT 10.0; Win64; x64) AppleWebKit/537.36 (KHTML, like Gecko) draw.io/24.5.3 Chrome/124.0.6367.207 Electron/30.0.6 Safari/537.36" etag="PA04Di9--Rdm8fVvqQ0L" version="24.5.3" type="device" pages="2">
  <diagram name="BUS" id="QMtOoDD-8tXnlTlIUn04">
    <mxGraphModel dx="2634" dy="1236" grid="0" gridSize="10" guides="1" tooltips="1" connect="1" arrows="1" fold="1" page="0" pageScale="1" pageWidth="850" pageHeight="1100" math="0" shadow="0">
      <root>
        <mxCell id="0" />
        <mxCell id="1" parent="0" />
        <mxCell id="ib2lG1DeqEpGUMaNGTcZ-62" value="" style="rounded=1;whiteSpace=wrap;html=1;strokeWidth=2;" parent="1" vertex="1">
          <mxGeometry x="-840" y="960" width="650" height="530" as="geometry" />
        </mxCell>
        <mxCell id="ib2lG1DeqEpGUMaNGTcZ-45" value="" style="rounded=1;whiteSpace=wrap;html=1;strokeWidth=2;" parent="1" vertex="1">
          <mxGeometry x="1355" y="40" width="615" height="770" as="geometry" />
        </mxCell>
        <mxCell id="ib2lG1DeqEpGUMaNGTcZ-19" value="" style="rounded=1;whiteSpace=wrap;html=1;strokeWidth=2;" parent="1" vertex="1">
          <mxGeometry x="-732" y="-3" width="540" height="739" as="geometry" />
        </mxCell>
        <mxCell id="MoGWhMq3bouCLQSR5Y8G-19" value="" style="rounded=1;whiteSpace=wrap;html=1;strokeWidth=2;" parent="1" vertex="1">
          <mxGeometry x="210" y="40" width="682" height="940" as="geometry" />
        </mxCell>
        <mxCell id="MoGWhMq3bouCLQSR5Y8G-12" style="edgeStyle=orthogonalEdgeStyle;rounded=0;orthogonalLoop=1;jettySize=auto;html=1;strokeWidth=2;" parent="1" source="MoGWhMq3bouCLQSR5Y8G-1" target="MoGWhMq3bouCLQSR5Y8G-2" edge="1">
          <mxGeometry relative="1" as="geometry" />
        </mxCell>
        <mxCell id="MoGWhMq3bouCLQSR5Y8G-1" value="" style="ellipse;whiteSpace=wrap;html=1;aspect=fixed;fillColor=#000000;strokeWidth=2;" parent="1" vertex="1">
          <mxGeometry x="380" y="110" width="30" height="30" as="geometry" />
        </mxCell>
        <mxCell id="MoGWhMq3bouCLQSR5Y8G-13" style="edgeStyle=orthogonalEdgeStyle;rounded=0;orthogonalLoop=1;jettySize=auto;html=1;entryX=0.5;entryY=0;entryDx=0;entryDy=0;strokeWidth=2;" parent="1" source="MoGWhMq3bouCLQSR5Y8G-2" target="MoGWhMq3bouCLQSR5Y8G-5" edge="1">
          <mxGeometry relative="1" as="geometry" />
        </mxCell>
        <mxCell id="MoGWhMq3bouCLQSR5Y8G-14" style="edgeStyle=orthogonalEdgeStyle;rounded=0;orthogonalLoop=1;jettySize=auto;html=1;strokeWidth=2;" parent="1" source="MoGWhMq3bouCLQSR5Y8G-2" target="MoGWhMq3bouCLQSR5Y8G-6" edge="1">
          <mxGeometry relative="1" as="geometry" />
        </mxCell>
        <mxCell id="MoGWhMq3bouCLQSR5Y8G-2" value="&lt;font style=&quot;font-size: 22px;&quot;&gt;Check phase&lt;/font&gt;" style="rhombus;whiteSpace=wrap;html=1;strokeWidth=2;" parent="1" vertex="1">
          <mxGeometry x="307.5" y="260" width="175" height="100" as="geometry" />
        </mxCell>
        <mxCell id="MoGWhMq3bouCLQSR5Y8G-16" style="edgeStyle=orthogonalEdgeStyle;rounded=0;orthogonalLoop=1;jettySize=auto;html=1;entryX=1;entryY=0.5;entryDx=0;entryDy=0;strokeWidth=2;" parent="1" source="MoGWhMq3bouCLQSR5Y8G-5" target="MoGWhMq3bouCLQSR5Y8G-10" edge="1">
          <mxGeometry relative="1" as="geometry">
            <Array as="points">
              <mxPoint x="700" y="545" />
              <mxPoint x="700" y="935" />
            </Array>
          </mxGeometry>
        </mxCell>
        <mxCell id="MoGWhMq3bouCLQSR5Y8G-17" style="edgeStyle=orthogonalEdgeStyle;rounded=0;orthogonalLoop=1;jettySize=auto;html=1;entryX=0.5;entryY=0;entryDx=0;entryDy=0;strokeWidth=2;" parent="1" source="MoGWhMq3bouCLQSR5Y8G-5" target="MoGWhMq3bouCLQSR5Y8G-8" edge="1">
          <mxGeometry relative="1" as="geometry" />
        </mxCell>
        <mxCell id="MoGWhMq3bouCLQSR5Y8G-5" value="&lt;font style=&quot;font-size: 22px;&quot;&gt;Check bus_lock&lt;/font&gt;" style="rhombus;whiteSpace=wrap;html=1;strokeWidth=2;" parent="1" vertex="1">
          <mxGeometry x="317.5" y="490" width="155" height="110" as="geometry" />
        </mxCell>
        <mxCell id="MoGWhMq3bouCLQSR5Y8G-15" style="edgeStyle=orthogonalEdgeStyle;rounded=0;orthogonalLoop=1;jettySize=auto;html=1;entryX=1;entryY=0.5;entryDx=0;entryDy=0;strokeWidth=2;" parent="1" source="MoGWhMq3bouCLQSR5Y8G-6" target="MoGWhMq3bouCLQSR5Y8G-10" edge="1">
          <mxGeometry relative="1" as="geometry">
            <Array as="points">
              <mxPoint x="700" y="935" />
            </Array>
          </mxGeometry>
        </mxCell>
        <mxCell id="MoGWhMq3bouCLQSR5Y8G-6" value="&lt;font style=&quot;font-size: 22px;&quot;&gt;Send END_REQ to salve&lt;/font&gt;" style="rounded=0;whiteSpace=wrap;html=1;strokeWidth=2;" parent="1" vertex="1">
          <mxGeometry x="550" y="390" width="290" height="90" as="geometry" />
        </mxCell>
        <mxCell id="MoGWhMq3bouCLQSR5Y8G-18" style="edgeStyle=orthogonalEdgeStyle;rounded=0;orthogonalLoop=1;jettySize=auto;html=1;entryX=0.5;entryY=0;entryDx=0;entryDy=0;strokeWidth=2;" parent="1" source="MoGWhMq3bouCLQSR5Y8G-8" target="MoGWhMq3bouCLQSR5Y8G-10" edge="1">
          <mxGeometry relative="1" as="geometry" />
        </mxCell>
        <mxCell id="MoGWhMq3bouCLQSR5Y8G-8" value="&lt;font style=&quot;font-size: 22px;&quot;&gt;TS_handle_begin_req&lt;/font&gt;" style="shape=process;whiteSpace=wrap;html=1;backgroundOutline=1;strokeWidth=2;" parent="1" vertex="1">
          <mxGeometry x="252.5" y="710" width="285" height="90" as="geometry" />
        </mxCell>
        <mxCell id="MoGWhMq3bouCLQSR5Y8G-10" value="" style="ellipse;whiteSpace=wrap;html=1;aspect=fixed;strokeWidth=2;" parent="1" vertex="1">
          <mxGeometry x="380" y="920" width="30" height="30" as="geometry" />
        </mxCell>
        <mxCell id="MoGWhMq3bouCLQSR5Y8G-11" value="" style="ellipse;whiteSpace=wrap;html=1;aspect=fixed;fillColor=#000000;strokeWidth=2;" parent="1" vertex="1">
          <mxGeometry x="385" y="925" width="20" height="20" as="geometry" />
        </mxCell>
        <mxCell id="MoGWhMq3bouCLQSR5Y8G-20" value="&lt;font style=&quot;font-size: 22px;&quot;&gt;&lt;b&gt;nb_transport_fw&lt;/b&gt;&lt;/font&gt;" style="text;html=1;align=center;verticalAlign=middle;resizable=0;points=[];autosize=1;strokeColor=none;fillColor=none;" parent="1" vertex="1">
          <mxGeometry x="640" y="80" width="200" height="40" as="geometry" />
        </mxCell>
        <mxCell id="ib2lG1DeqEpGUMaNGTcZ-18" style="edgeStyle=orthogonalEdgeStyle;rounded=0;orthogonalLoop=1;jettySize=auto;html=1;entryX=0.5;entryY=0;entryDx=0;entryDy=0;strokeWidth=2;" parent="1" source="ib2lG1DeqEpGUMaNGTcZ-1" target="ib2lG1DeqEpGUMaNGTcZ-2" edge="1">
          <mxGeometry relative="1" as="geometry" />
        </mxCell>
        <mxCell id="ib2lG1DeqEpGUMaNGTcZ-1" value="" style="ellipse;whiteSpace=wrap;html=1;aspect=fixed;fillColor=#000000;" parent="1" vertex="1">
          <mxGeometry x="-540" y="50" width="30" height="30" as="geometry" />
        </mxCell>
        <mxCell id="ib2lG1DeqEpGUMaNGTcZ-12" style="edgeStyle=orthogonalEdgeStyle;rounded=0;orthogonalLoop=1;jettySize=auto;html=1;entryX=0.5;entryY=0;entryDx=0;entryDy=0;strokeWidth=2;" parent="1" source="ib2lG1DeqEpGUMaNGTcZ-2" target="ib2lG1DeqEpGUMaNGTcZ-4" edge="1">
          <mxGeometry relative="1" as="geometry" />
        </mxCell>
        <mxCell id="ib2lG1DeqEpGUMaNGTcZ-13" style="edgeStyle=orthogonalEdgeStyle;rounded=0;orthogonalLoop=1;jettySize=auto;html=1;entryX=1;entryY=0.5;entryDx=0;entryDy=0;strokeWidth=2;" parent="1" source="ib2lG1DeqEpGUMaNGTcZ-2" target="ib2lG1DeqEpGUMaNGTcZ-10" edge="1">
          <mxGeometry relative="1" as="geometry">
            <Array as="points">
              <mxPoint x="-258" y="240" />
              <mxPoint x="-258" y="635" />
            </Array>
          </mxGeometry>
        </mxCell>
        <mxCell id="ib2lG1DeqEpGUMaNGTcZ-2" value="&lt;font style=&quot;font-size: 22px;&quot;&gt;Check phase&lt;/font&gt;" style="rhombus;whiteSpace=wrap;html=1;strokeWidth=2;" parent="1" vertex="1">
          <mxGeometry x="-612.5" y="190" width="175" height="100" as="geometry" />
        </mxCell>
        <mxCell id="ib2lG1DeqEpGUMaNGTcZ-16" style="edgeStyle=orthogonalEdgeStyle;rounded=0;orthogonalLoop=1;jettySize=auto;html=1;entryX=0.5;entryY=0;entryDx=0;entryDy=0;strokeWidth=2;" parent="1" source="ib2lG1DeqEpGUMaNGTcZ-4" target="ib2lG1DeqEpGUMaNGTcZ-10" edge="1">
          <mxGeometry relative="1" as="geometry" />
        </mxCell>
        <mxCell id="ib2lG1DeqEpGUMaNGTcZ-4" value="&lt;font style=&quot;font-size: 22px;&quot;&gt;target_sockets-&amp;gt;nb_transport_bw&lt;/font&gt;" style="rounded=0;whiteSpace=wrap;html=1;strokeWidth=2;" parent="1" vertex="1">
          <mxGeometry x="-702.5" y="420" width="355" height="60" as="geometry" />
        </mxCell>
        <mxCell id="ib2lG1DeqEpGUMaNGTcZ-5" value="&lt;font style=&quot;font-size: 22px;&quot;&gt;BEGIN_REQ&lt;/font&gt;" style="text;html=1;align=center;verticalAlign=middle;resizable=0;points=[];autosize=1;strokeColor=none;fillColor=none;" parent="1" vertex="1">
          <mxGeometry x="235" y="390" width="150" height="40" as="geometry" />
        </mxCell>
        <mxCell id="ib2lG1DeqEpGUMaNGTcZ-6" value="&lt;font style=&quot;font-size: 22px;&quot;&gt;END_REQ&lt;/font&gt;" style="text;html=1;align=center;verticalAlign=middle;resizable=0;points=[];autosize=1;strokeColor=none;fillColor=none;" parent="1" vertex="1">
          <mxGeometry x="530" y="260" width="130" height="40" as="geometry" />
        </mxCell>
        <mxCell id="ib2lG1DeqEpGUMaNGTcZ-7" value="&lt;font style=&quot;font-size: 22px;&quot;&gt;False&lt;/font&gt;" style="text;html=1;align=center;verticalAlign=middle;resizable=0;points=[];autosize=1;strokeColor=none;fillColor=none;" parent="1" vertex="1">
          <mxGeometry x="305" y="620" width="80" height="40" as="geometry" />
        </mxCell>
        <mxCell id="ib2lG1DeqEpGUMaNGTcZ-8" value="&lt;font style=&quot;font-size: 22px;&quot;&gt;True&lt;/font&gt;" style="text;html=1;align=center;verticalAlign=middle;resizable=0;points=[];autosize=1;strokeColor=none;fillColor=none;" parent="1" vertex="1">
          <mxGeometry x="500" y="553" width="70" height="40" as="geometry" />
        </mxCell>
        <mxCell id="ib2lG1DeqEpGUMaNGTcZ-9" value="&lt;font style=&quot;font-size: 22px;&quot;&gt;END_REQ&lt;/font&gt;" style="text;html=1;align=center;verticalAlign=middle;resizable=0;points=[];autosize=1;strokeColor=none;fillColor=none;" parent="1" vertex="1">
          <mxGeometry x="-697" y="320" width="130" height="40" as="geometry" />
        </mxCell>
        <mxCell id="ib2lG1DeqEpGUMaNGTcZ-10" value="" style="ellipse;whiteSpace=wrap;html=1;aspect=fixed;" parent="1" vertex="1">
          <mxGeometry x="-540" y="620" width="30" height="30" as="geometry" />
        </mxCell>
        <mxCell id="ib2lG1DeqEpGUMaNGTcZ-11" value="" style="ellipse;whiteSpace=wrap;html=1;aspect=fixed;fillColor=#000000;" parent="1" vertex="1">
          <mxGeometry x="-535" y="625" width="20" height="20" as="geometry" />
        </mxCell>
        <mxCell id="ib2lG1DeqEpGUMaNGTcZ-17" value="&lt;font style=&quot;font-size: 22px;&quot;&gt;BEGIN_REQ&lt;/font&gt;" style="text;html=1;align=center;verticalAlign=middle;resizable=0;points=[];autosize=1;strokeColor=none;fillColor=none;" parent="1" vertex="1">
          <mxGeometry x="-412" y="200" width="150" height="40" as="geometry" />
        </mxCell>
        <mxCell id="ib2lG1DeqEpGUMaNGTcZ-20" value="&lt;font style=&quot;font-size: 22px;&quot;&gt;&lt;b&gt;nb_transport_bw&lt;/b&gt;&lt;/font&gt;" style="text;html=1;align=center;verticalAlign=middle;resizable=0;points=[];autosize=1;strokeColor=none;fillColor=none;" parent="1" vertex="1">
          <mxGeometry x="-412" y="31" width="196" height="38" as="geometry" />
        </mxCell>
        <mxCell id="ib2lG1DeqEpGUMaNGTcZ-30" style="edgeStyle=orthogonalEdgeStyle;rounded=0;orthogonalLoop=1;jettySize=auto;html=1;strokeWidth=2;" parent="1" source="ib2lG1DeqEpGUMaNGTcZ-21" target="ib2lG1DeqEpGUMaNGTcZ-26" edge="1">
          <mxGeometry relative="1" as="geometry" />
        </mxCell>
        <mxCell id="ib2lG1DeqEpGUMaNGTcZ-21" value="" style="ellipse;whiteSpace=wrap;html=1;aspect=fixed;fillColor=#000000;" parent="1" vertex="1">
          <mxGeometry x="1470" y="50" width="30" height="30" as="geometry" />
        </mxCell>
        <mxCell id="ib2lG1DeqEpGUMaNGTcZ-29" style="edgeStyle=orthogonalEdgeStyle;rounded=0;orthogonalLoop=1;jettySize=auto;html=1;entryX=0;entryY=0.5;entryDx=0;entryDy=0;strokeWidth=2;" parent="1" source="ib2lG1DeqEpGUMaNGTcZ-26" target="ib2lG1DeqEpGUMaNGTcZ-28" edge="1">
          <mxGeometry relative="1" as="geometry" />
        </mxCell>
        <mxCell id="ib2lG1DeqEpGUMaNGTcZ-41" style="edgeStyle=orthogonalEdgeStyle;rounded=0;orthogonalLoop=1;jettySize=auto;html=1;entryX=0.5;entryY=0;entryDx=0;entryDy=0;strokeWidth=2;" parent="1" source="ib2lG1DeqEpGUMaNGTcZ-26" target="ib2lG1DeqEpGUMaNGTcZ-39" edge="1">
          <mxGeometry relative="1" as="geometry" />
        </mxCell>
        <mxCell id="ib2lG1DeqEpGUMaNGTcZ-26" value="&lt;font style=&quot;font-size: 22px;&quot;&gt;loop when&lt;br&gt;i &amp;lt; num of TS&lt;/font&gt;" style="rhombus;whiteSpace=wrap;html=1;strokeWidth=2;" parent="1" vertex="1">
          <mxGeometry x="1391.25" y="270" width="187.5" height="160" as="geometry" />
        </mxCell>
        <mxCell id="ib2lG1DeqEpGUMaNGTcZ-31" style="edgeStyle=orthogonalEdgeStyle;rounded=0;orthogonalLoop=1;jettySize=auto;html=1;entryX=0.5;entryY=0;entryDx=0;entryDy=0;strokeWidth=2;" parent="1" source="ib2lG1DeqEpGUMaNGTcZ-28" target="ib2lG1DeqEpGUMaNGTcZ-26" edge="1">
          <mxGeometry relative="1" as="geometry">
            <Array as="points">
              <mxPoint x="1785" y="180" />
              <mxPoint x="1485" y="180" />
            </Array>
          </mxGeometry>
        </mxCell>
        <mxCell id="ib2lG1DeqEpGUMaNGTcZ-35" style="edgeStyle=orthogonalEdgeStyle;rounded=0;orthogonalLoop=1;jettySize=auto;html=1;entryX=0.5;entryY=0;entryDx=0;entryDy=0;strokeWidth=2;" parent="1" source="ib2lG1DeqEpGUMaNGTcZ-28" target="ib2lG1DeqEpGUMaNGTcZ-32" edge="1">
          <mxGeometry relative="1" as="geometry" />
        </mxCell>
        <mxCell id="ib2lG1DeqEpGUMaNGTcZ-28" value="&lt;font style=&quot;font-size: 22px;&quot;&gt;Check address&lt;/font&gt;" style="rhombus;whiteSpace=wrap;html=1;strokeWidth=2;" parent="1" vertex="1">
          <mxGeometry x="1690" y="290" width="190" height="120" as="geometry" />
        </mxCell>
        <mxCell id="ib2lG1DeqEpGUMaNGTcZ-36" style="edgeStyle=orthogonalEdgeStyle;rounded=0;orthogonalLoop=1;jettySize=auto;html=1;entryX=0.5;entryY=0;entryDx=0;entryDy=0;strokeWidth=2;" parent="1" source="ib2lG1DeqEpGUMaNGTcZ-32" target="ib2lG1DeqEpGUMaNGTcZ-33" edge="1">
          <mxGeometry relative="1" as="geometry" />
        </mxCell>
        <mxCell id="ib2lG1DeqEpGUMaNGTcZ-32" value="&lt;font style=&quot;font-size: 22px;&quot;&gt;reconfig trans address and status&lt;/font&gt;" style="rounded=0;whiteSpace=wrap;html=1;strokeWidth=2;" parent="1" vertex="1">
          <mxGeometry x="1642.5" y="475" width="285" height="70" as="geometry" />
        </mxCell>
        <mxCell id="ib2lG1DeqEpGUMaNGTcZ-37" style="edgeStyle=orthogonalEdgeStyle;rounded=0;orthogonalLoop=1;jettySize=auto;html=1;entryX=0.5;entryY=0;entryDx=0;entryDy=0;strokeWidth=2;" parent="1" source="ib2lG1DeqEpGUMaNGTcZ-33" target="ib2lG1DeqEpGUMaNGTcZ-34" edge="1">
          <mxGeometry relative="1" as="geometry" />
        </mxCell>
        <mxCell id="ib2lG1DeqEpGUMaNGTcZ-33" value="&lt;font style=&quot;font-size: 22px;&quot;&gt;Break&lt;/font&gt;" style="rounded=0;whiteSpace=wrap;html=1;strokeWidth=2;" parent="1" vertex="1">
          <mxGeometry x="1725" y="600" width="120" height="60" as="geometry" />
        </mxCell>
        <mxCell id="ib2lG1DeqEpGUMaNGTcZ-38" value="" style="edgeStyle=orthogonalEdgeStyle;rounded=0;orthogonalLoop=1;jettySize=auto;html=1;strokeWidth=2;" parent="1" source="ib2lG1DeqEpGUMaNGTcZ-34" target="ib2lG1DeqEpGUMaNGTcZ-33" edge="1">
          <mxGeometry relative="1" as="geometry" />
        </mxCell>
        <mxCell id="ib2lG1DeqEpGUMaNGTcZ-42" style="edgeStyle=orthogonalEdgeStyle;rounded=0;orthogonalLoop=1;jettySize=auto;html=1;entryX=1;entryY=0.5;entryDx=0;entryDy=0;strokeWidth=2;" parent="1" source="ib2lG1DeqEpGUMaNGTcZ-34" target="ib2lG1DeqEpGUMaNGTcZ-39" edge="1">
          <mxGeometry relative="1" as="geometry" />
        </mxCell>
        <mxCell id="ib2lG1DeqEpGUMaNGTcZ-34" value="&lt;font style=&quot;font-size: 22px;&quot;&gt;Notify e_forward_tran&lt;/font&gt;" style="rounded=0;whiteSpace=wrap;html=1;strokeWidth=2;" parent="1" vertex="1">
          <mxGeometry x="1662.5" y="730" width="245" height="50" as="geometry" />
        </mxCell>
        <mxCell id="ib2lG1DeqEpGUMaNGTcZ-39" value="" style="ellipse;whiteSpace=wrap;html=1;aspect=fixed;" parent="1" vertex="1">
          <mxGeometry x="1470" y="740" width="30" height="30" as="geometry" />
        </mxCell>
        <mxCell id="ib2lG1DeqEpGUMaNGTcZ-40" value="" style="ellipse;whiteSpace=wrap;html=1;aspect=fixed;fillColor=#000000;" parent="1" vertex="1">
          <mxGeometry x="1475" y="745" width="20" height="20" as="geometry" />
        </mxCell>
        <mxCell id="ib2lG1DeqEpGUMaNGTcZ-43" value="&lt;font style=&quot;font-size: 22px;&quot;&gt;False, increase i&lt;/font&gt;" style="text;html=1;align=center;verticalAlign=middle;resizable=0;points=[];autosize=1;strokeColor=none;fillColor=none;" parent="1" vertex="1">
          <mxGeometry x="1537.5" y="140" width="180" height="40" as="geometry" />
        </mxCell>
        <mxCell id="ib2lG1DeqEpGUMaNGTcZ-44" value="&lt;font style=&quot;font-size: 22px;&quot;&gt;True&lt;/font&gt;" style="text;html=1;align=center;verticalAlign=middle;resizable=0;points=[];autosize=1;strokeColor=none;fillColor=none;" parent="1" vertex="1">
          <mxGeometry x="1800" y="420" width="70" height="40" as="geometry" />
        </mxCell>
        <mxCell id="ib2lG1DeqEpGUMaNGTcZ-46" value="&lt;p class=&quot;MsoNormal&quot;&gt;&lt;span style=&quot;mso-spacerun:&#39;yes&#39;;font-family:&#39;Times New Roman&#39;;mso-fareast-font-family:等线;&lt;br/&gt;font-size:14.0000pt;&quot;&gt;&lt;font style=&quot;font-size: 22px;&quot;&gt;&lt;b&gt;TS_handle_begin_req&lt;/b&gt;&lt;/font&gt;&lt;/span&gt;&lt;/p&gt;" style="text;whiteSpace=wrap;html=1;" parent="1" vertex="1">
          <mxGeometry x="1720" y="40" width="230" height="50" as="geometry" />
        </mxCell>
        <mxCell id="ib2lG1DeqEpGUMaNGTcZ-58" style="edgeStyle=orthogonalEdgeStyle;rounded=0;orthogonalLoop=1;jettySize=auto;html=1;entryX=0;entryY=0.5;entryDx=0;entryDy=0;strokeWidth=2;" parent="1" source="ib2lG1DeqEpGUMaNGTcZ-47" target="ib2lG1DeqEpGUMaNGTcZ-49" edge="1">
          <mxGeometry relative="1" as="geometry">
            <mxPoint x="-500" y="1530" as="targetPoint" />
            <Array as="points">
              <mxPoint x="-790" y="1420" />
              <mxPoint x="-790" y="1160" />
            </Array>
          </mxGeometry>
        </mxCell>
        <mxCell id="ib2lG1DeqEpGUMaNGTcZ-47" value="&lt;font style=&quot;font-size: 22px;&quot;&gt;initiator_sockets[socket_index]-&amp;gt;nb_transport_fw&lt;/font&gt;" style="rounded=0;whiteSpace=wrap;html=1;strokeWidth=2;" parent="1" vertex="1">
          <mxGeometry x="-765" y="1390" width="530" height="60" as="geometry" />
        </mxCell>
        <mxCell id="ib2lG1DeqEpGUMaNGTcZ-54" style="edgeStyle=orthogonalEdgeStyle;rounded=0;orthogonalLoop=1;jettySize=auto;html=1;entryX=0.5;entryY=0;entryDx=0;entryDy=0;strokeWidth=2;" parent="1" source="ib2lG1DeqEpGUMaNGTcZ-48" target="ib2lG1DeqEpGUMaNGTcZ-49" edge="1">
          <mxGeometry relative="1" as="geometry" />
        </mxCell>
        <mxCell id="ib2lG1DeqEpGUMaNGTcZ-48" value="" style="ellipse;whiteSpace=wrap;html=1;aspect=fixed;fillColor=#000000;strokeWidth=2;" parent="1" vertex="1">
          <mxGeometry x="-515" y="1010" width="30" height="30" as="geometry" />
        </mxCell>
        <mxCell id="ib2lG1DeqEpGUMaNGTcZ-49" value="&lt;font style=&quot;font-size: 22px;&quot;&gt;Waiting e_forward_tran event&lt;/font&gt;" style="rounded=0;whiteSpace=wrap;html=1;strokeWidth=2;" parent="1" vertex="1">
          <mxGeometry x="-649.25" y="1130" width="298.5" height="60" as="geometry" />
        </mxCell>
        <mxCell id="ib2lG1DeqEpGUMaNGTcZ-57" style="edgeStyle=orthogonalEdgeStyle;rounded=0;orthogonalLoop=1;jettySize=auto;html=1;entryX=0.5;entryY=0;entryDx=0;entryDy=0;strokeWidth=2;" parent="1" source="ib2lG1DeqEpGUMaNGTcZ-50" target="ib2lG1DeqEpGUMaNGTcZ-47" edge="1">
          <mxGeometry relative="1" as="geometry">
            <Array as="points">
              <mxPoint x="-500" y="1340" />
              <mxPoint x="-500" y="1340" />
            </Array>
          </mxGeometry>
        </mxCell>
        <mxCell id="ib2lG1DeqEpGUMaNGTcZ-50" value="&lt;font style=&quot;font-size: 22px;&quot;&gt;Synchronizing with clock cycles&lt;/font&gt;" style="rounded=0;whiteSpace=wrap;html=1;strokeWidth=2;" parent="1" vertex="1">
          <mxGeometry x="-662.14" y="1260" width="334.25" height="60" as="geometry" />
        </mxCell>
        <mxCell id="ib2lG1DeqEpGUMaNGTcZ-55" style="edgeStyle=orthogonalEdgeStyle;rounded=0;orthogonalLoop=1;jettySize=auto;html=1;entryX=0.486;entryY=-0.033;entryDx=0;entryDy=0;entryPerimeter=0;strokeWidth=2;" parent="1" source="ib2lG1DeqEpGUMaNGTcZ-49" target="ib2lG1DeqEpGUMaNGTcZ-50" edge="1">
          <mxGeometry relative="1" as="geometry" />
        </mxCell>
        <mxCell id="ib2lG1DeqEpGUMaNGTcZ-60" value="&lt;font style=&quot;font-size: 22px;&quot;&gt;&lt;b&gt;foward_transaction_process&lt;/b&gt;&lt;/font&gt;" style="text;html=1;align=center;verticalAlign=middle;resizable=0;points=[];autosize=1;strokeColor=none;fillColor=none;" parent="1" vertex="1">
          <mxGeometry x="-540" y="960" width="320" height="40" as="geometry" />
        </mxCell>
      </root>
    </mxGraphModel>
  </diagram>
  <diagram id="FBEUBQnoDpKC7mBADyFh" name="Dummy master">
    <mxGraphModel dx="3590" dy="1793" grid="0" gridSize="10" guides="1" tooltips="1" connect="1" arrows="1" fold="1" page="0" pageScale="1" pageWidth="850" pageHeight="1100" math="0" shadow="0">
      <root>
        <mxCell id="0" />
        <mxCell id="1" parent="0" />
        <mxCell id="h_sgYUtgeLz0xO8hBFq2-1" value="" style="rounded=1;whiteSpace=wrap;html=1;strokeWidth=2;" vertex="1" parent="1">
          <mxGeometry x="-732" y="-3" width="540" height="739" as="geometry" />
        </mxCell>
        <mxCell id="h_sgYUtgeLz0xO8hBFq2-2" style="edgeStyle=orthogonalEdgeStyle;rounded=0;orthogonalLoop=1;jettySize=auto;html=1;entryX=0.5;entryY=0;entryDx=0;entryDy=0;strokeWidth=2;" edge="1" parent="1" source="h_sgYUtgeLz0xO8hBFq2-3" target="h_sgYUtgeLz0xO8hBFq2-6">
          <mxGeometry relative="1" as="geometry" />
        </mxCell>
        <mxCell id="h_sgYUtgeLz0xO8hBFq2-3" value="" style="ellipse;whiteSpace=wrap;html=1;aspect=fixed;fillColor=#000000;" vertex="1" parent="1">
          <mxGeometry x="-540" y="50" width="30" height="30" as="geometry" />
        </mxCell>
        <mxCell id="h_sgYUtgeLz0xO8hBFq2-4" style="edgeStyle=orthogonalEdgeStyle;rounded=0;orthogonalLoop=1;jettySize=auto;html=1;entryX=0.5;entryY=0;entryDx=0;entryDy=0;strokeWidth=2;" edge="1" parent="1" source="h_sgYUtgeLz0xO8hBFq2-6" target="h_sgYUtgeLz0xO8hBFq2-8">
          <mxGeometry relative="1" as="geometry" />
        </mxCell>
        <mxCell id="h_sgYUtgeLz0xO8hBFq2-5" style="edgeStyle=orthogonalEdgeStyle;rounded=0;orthogonalLoop=1;jettySize=auto;html=1;entryX=1;entryY=0.5;entryDx=0;entryDy=0;strokeWidth=2;" edge="1" parent="1" source="h_sgYUtgeLz0xO8hBFq2-6" target="h_sgYUtgeLz0xO8hBFq2-10">
          <mxGeometry relative="1" as="geometry">
            <Array as="points">
              <mxPoint x="-258" y="240" />
              <mxPoint x="-258" y="635" />
            </Array>
          </mxGeometry>
        </mxCell>
        <mxCell id="h_sgYUtgeLz0xO8hBFq2-6" value="&lt;font style=&quot;font-size: 22px;&quot;&gt;Check phase&lt;/font&gt;" style="rhombus;whiteSpace=wrap;html=1;strokeWidth=2;" vertex="1" parent="1">
          <mxGeometry x="-612.5" y="190" width="175" height="100" as="geometry" />
        </mxCell>
        <mxCell id="h_sgYUtgeLz0xO8hBFq2-7" style="edgeStyle=orthogonalEdgeStyle;rounded=0;orthogonalLoop=1;jettySize=auto;html=1;entryX=0.5;entryY=0;entryDx=0;entryDy=0;strokeWidth=2;" edge="1" parent="1" source="h_sgYUtgeLz0xO8hBFq2-8" target="h_sgYUtgeLz0xO8hBFq2-10">
          <mxGeometry relative="1" as="geometry" />
        </mxCell>
        <mxCell id="h_sgYUtgeLz0xO8hBFq2-8" value="&lt;font style=&quot;font-size: 22px;&quot;&gt;Copy data to temp data&lt;/font&gt;" style="rounded=0;whiteSpace=wrap;html=1;strokeWidth=2;" vertex="1" parent="1">
          <mxGeometry x="-702.5" y="420" width="355" height="60" as="geometry" />
        </mxCell>
        <mxCell id="h_sgYUtgeLz0xO8hBFq2-9" value="&lt;font style=&quot;font-size: 22px;&quot;&gt;END_REQ&lt;/font&gt;" style="text;html=1;align=center;verticalAlign=middle;resizable=0;points=[];autosize=1;strokeColor=none;fillColor=none;" vertex="1" parent="1">
          <mxGeometry x="-697" y="320" width="130" height="40" as="geometry" />
        </mxCell>
        <mxCell id="h_sgYUtgeLz0xO8hBFq2-10" value="" style="ellipse;whiteSpace=wrap;html=1;aspect=fixed;" vertex="1" parent="1">
          <mxGeometry x="-540" y="620" width="30" height="30" as="geometry" />
        </mxCell>
        <mxCell id="h_sgYUtgeLz0xO8hBFq2-11" value="" style="ellipse;whiteSpace=wrap;html=1;aspect=fixed;fillColor=#000000;" vertex="1" parent="1">
          <mxGeometry x="-535" y="625" width="20" height="20" as="geometry" />
        </mxCell>
        <mxCell id="h_sgYUtgeLz0xO8hBFq2-12" value="&lt;font style=&quot;font-size: 22px;&quot;&gt;BEGIN_REQ&lt;/font&gt;" style="text;html=1;align=center;verticalAlign=middle;resizable=0;points=[];autosize=1;strokeColor=none;fillColor=none;" vertex="1" parent="1">
          <mxGeometry x="-412" y="200" width="150" height="40" as="geometry" />
        </mxCell>
        <mxCell id="h_sgYUtgeLz0xO8hBFq2-13" value="&lt;font style=&quot;font-size: 22px;&quot;&gt;&lt;b&gt;nb_transport_bw&lt;/b&gt;&lt;/font&gt;" style="text;html=1;align=center;verticalAlign=middle;resizable=0;points=[];autosize=1;strokeColor=none;fillColor=none;" vertex="1" parent="1">
          <mxGeometry x="-412" y="31" width="196" height="38" as="geometry" />
        </mxCell>
        <mxCell id="ZfjjForFQA-X3jtQdQhZ-11" value="" style="rounded=1;whiteSpace=wrap;html=1;strokeWidth=2;" vertex="1" parent="1">
          <mxGeometry x="-830" y="970" width="650" height="530" as="geometry" />
        </mxCell>
        <mxCell id="ZfjjForFQA-X3jtQdQhZ-24" style="edgeStyle=orthogonalEdgeStyle;rounded=0;orthogonalLoop=1;jettySize=auto;html=1;entryX=0.5;entryY=0;entryDx=0;entryDy=0;strokeWidth=2;" edge="1" parent="1" source="ZfjjForFQA-X3jtQdQhZ-13" target="ZfjjForFQA-X3jtQdQhZ-22">
          <mxGeometry relative="1" as="geometry" />
        </mxCell>
        <mxCell id="ZfjjForFQA-X3jtQdQhZ-13" value="&lt;font style=&quot;font-size: 22px;&quot;&gt;initiator_socket-&amp;gt;nb_transport_fw&lt;/font&gt;" style="rounded=0;whiteSpace=wrap;html=1;strokeWidth=2;" vertex="1" parent="1">
          <mxGeometry x="-755" y="1280" width="530" height="60" as="geometry" />
        </mxCell>
        <mxCell id="ZfjjForFQA-X3jtQdQhZ-14" style="edgeStyle=orthogonalEdgeStyle;rounded=0;orthogonalLoop=1;jettySize=auto;html=1;entryX=0.5;entryY=0;entryDx=0;entryDy=0;strokeWidth=2;" edge="1" parent="1" source="ZfjjForFQA-X3jtQdQhZ-15" target="ZfjjForFQA-X3jtQdQhZ-16">
          <mxGeometry relative="1" as="geometry" />
        </mxCell>
        <mxCell id="ZfjjForFQA-X3jtQdQhZ-15" value="" style="ellipse;whiteSpace=wrap;html=1;aspect=fixed;fillColor=#000000;strokeWidth=2;" vertex="1" parent="1">
          <mxGeometry x="-505" y="1020" width="30" height="30" as="geometry" />
        </mxCell>
        <mxCell id="ZfjjForFQA-X3jtQdQhZ-21" style="edgeStyle=orthogonalEdgeStyle;rounded=0;orthogonalLoop=1;jettySize=auto;html=1;entryX=0.5;entryY=0;entryDx=0;entryDy=0;strokeWidth=2;" edge="1" parent="1" source="ZfjjForFQA-X3jtQdQhZ-16" target="ZfjjForFQA-X3jtQdQhZ-13">
          <mxGeometry relative="1" as="geometry" />
        </mxCell>
        <mxCell id="ZfjjForFQA-X3jtQdQhZ-16" value="&lt;font style=&quot;font-size: 22px;&quot;&gt;Setting trans payload&lt;/font&gt;" style="rounded=0;whiteSpace=wrap;html=1;strokeWidth=2;" vertex="1" parent="1">
          <mxGeometry x="-639.25" y="1140" width="298.5" height="60" as="geometry" />
        </mxCell>
        <mxCell id="ZfjjForFQA-X3jtQdQhZ-20" value="&lt;font style=&quot;font-size: 22px;&quot;&gt;&lt;b&gt;Sent transaction&lt;/b&gt;&lt;/font&gt;" style="text;html=1;align=center;verticalAlign=middle;resizable=0;points=[];autosize=1;strokeColor=none;fillColor=none;" vertex="1" parent="1">
          <mxGeometry x="-470" y="970" width="200" height="40" as="geometry" />
        </mxCell>
        <mxCell id="ZfjjForFQA-X3jtQdQhZ-22" value="" style="ellipse;whiteSpace=wrap;html=1;aspect=fixed;" vertex="1" parent="1">
          <mxGeometry x="-505" y="1420" width="30" height="30" as="geometry" />
        </mxCell>
        <mxCell id="ZfjjForFQA-X3jtQdQhZ-23" value="" style="ellipse;whiteSpace=wrap;html=1;aspect=fixed;fillColor=#000000;" vertex="1" parent="1">
          <mxGeometry x="-500" y="1425" width="20" height="20" as="geometry" />
        </mxCell>
      </root>
    </mxGraphModel>
  </diagram>
</mxfile>
